# xmcd
#
# Track frame offsets:
#	150
#	17062
#	36493
#	54592
#	74018
#	88710
#	102621
#	120245
#	136327
#	153550
#	173412
#
# Disc length: 2490 seconds
#
# Revision: 1
# Processed by: cddbd v1.5.2PL0 Copyright (c) Steve Scherf et al.
# Submitted via: audiograbber 1.83.01
#
DISCID=9409b80b
DTITLE=Anita Lipnicka and John Porter - Goodbye
DYEAR=2007
DGENRE=Blues
TTITLE0=Run For Your Love
TTITLE1=Down By The Lake
TTITLE2=Lonesome Traveller
TTITLE3=Good To See You
TTITLE4=Old Time Radio
TTITLE5=Lover Turn Around
TTITLE6=Secret Wish
TTITLE7=You're Not The Only One
TTITLE8=How You Doin' Today?
TTITLE9=Runner Run
TTITLE10=Stone Cold Morning
EXTD=
EXTT0=
EXTT1=
EXTT2=
EXTT3=
EXTT4=
EXTT5=
EXTT6=
EXTT7=
EXTT8=
EXTT9=
EXTT10=
PLAYORDER=
